<svg xmlns="http://www.w3.org/2000/svg" xmlns:xlink="http://www.w3.org/1999/xlink" width="431.499" height="74.31" viewBox="0 0 431.499 74.31">
  <defs>
    <clipPath id="clip-path">
      <rect id="Rectangle_130" data-name="Rectangle 130" width="431.499" height="74.31" transform="translate(0 0)" fill="#fff"/>
    </clipPath>
  </defs>
  <g id="Group_55" data-name="Group 55" clip-path="url(#clip-path)">
    <path id="Path_99" data-name="Path 99" d="M112.115,67.56c0-3.872,2.494-6.767,6.366-6.767a5.928,5.928,0,0,1,3.558,1.012,5,5,0,0,1,2.006,3.592h-2.966a2.477,2.477,0,0,0-2.615-2.128c-2.216,0-3.314,1.832-3.314,4.291,0,2.477,1.29,4.273,3.331,4.273a2.56,2.56,0,0,0,2.7-2.372h2.983a5.258,5.258,0,0,1-1.57,3.366,5.563,5.563,0,0,1-4.116,1.465c-3.785,0-6.366-2.86-6.366-6.732" fill="#fff"/>
    <path id="Path_100" data-name="Path 100" d="M127.616,67.56c0-3.89,2.476-6.767,6.418-6.767,3.924,0,6.4,2.877,6.4,6.767,0,3.872-2.477,6.75-6.4,6.75-3.942,0-6.418-2.878-6.418-6.75m9.784,0c0-2.459-1.116-4.36-3.349-4.36-2.249,0-3.4,1.9-3.4,4.36,0,2.441,1.152,4.308,3.4,4.308,2.233,0,3.349-1.867,3.349-4.308" fill="#fff"/>
    <path id="Path_101" data-name="Path 101" d="M144.53,61.02h3.035l3.418,5.633c.768,1.308,1.779,3.419,1.779,3.419h.035s-.157-2.32-.157-3.8V61.02h2.843V74h-3.052l-3.384-5.563c-.785-1.309-1.8-3.471-1.8-3.471h-.035s.157,2.337.157,3.819V74H144.53Z" fill="#fff"/>
    <path id="Path_102" data-name="Path 102" d="M159.439,69.9h3c.157,1.413,1.081,2.041,2.755,2.041,1.152,0,2.233-.454,2.233-1.518,0-1.133-1.1-1.377-2.983-1.814-2.528-.575-4.587-1.2-4.587-3.906,0-2.686,2.2-3.907,5.059-3.907s4.883,1.326,5.075,3.872h-2.913c-.157-1.012-.959-1.6-2.25-1.6-1.221,0-2.04.524-2.04,1.343,0,1.012,1.116,1.239,3.156,1.692,2.337.523,4.483,1.291,4.483,4.029,0,2.686-2.268,4.186-5.233,4.186-3.47,0-5.668-1.6-5.755-4.413" fill="#fff"/>
    <path id="Path_103" data-name="Path 103" d="M173.509,61.02h10.709v2.529h-3.872V74h-2.983V63.549h-3.854Z" fill="#fff"/>
    <path id="Path_104" data-name="Path 104" d="M193.407,69.287h-2.163V74h-3.018V61.02H194.1a4.653,4.653,0,0,1,3.488,1.2,4.054,4.054,0,0,1,1.238,3.017,3.775,3.775,0,0,1-2.459,3.645L199.406,74h-3.349Zm-2.163-2.354h2.668c1.239,0,1.936-.593,1.936-1.692,0-1.116-.715-1.692-1.936-1.692h-2.668Z" fill="#fff"/>
    <path id="Path_105" data-name="Path 105" d="M203.013,69.479V61.02h2.965v8.529c0,1.412.75,2.284,2.424,2.284a2.143,2.143,0,0,0,2.355-2.336V61.02h2.982v8.459c0,3.017-1.866,4.761-5.337,4.761-3.523,0-5.389-1.709-5.389-4.761" fill="#fff"/>
    <path id="Path_106" data-name="Path 106" d="M217.678,67.56c0-3.872,2.494-6.767,6.366-6.767a5.929,5.929,0,0,1,3.558,1.012,5,5,0,0,1,2.006,3.592h-2.966a2.477,2.477,0,0,0-2.615-2.128c-2.216,0-3.314,1.832-3.314,4.291,0,2.477,1.29,4.273,3.331,4.273a2.56,2.56,0,0,0,2.7-2.372h2.983a5.258,5.258,0,0,1-1.57,3.366,5.563,5.563,0,0,1-4.116,1.465c-3.785,0-6.366-2.86-6.366-6.732" fill="#fff"/>
    <path id="Path_107" data-name="Path 107" d="M232.831,61.02H243.54v2.529h-3.872V74h-2.983V63.549h-3.854Z" fill="#fff"/>
    <rect id="Rectangle_127" data-name="Rectangle 127" width="2.982" height="12.976" transform="translate(247.548 61.02)" fill="#fff"/>
    <path id="Path_108" data-name="Path 108" d="M254.645,67.56c0-3.89,2.476-6.767,6.418-6.767,3.924,0,6.4,2.877,6.4,6.767,0,3.872-2.477,6.75-6.4,6.75-3.942,0-6.418-2.878-6.418-6.75m9.784,0c0-2.459-1.116-4.36-3.349-4.36-2.25,0-3.4,1.9-3.4,4.36,0,2.441,1.151,4.308,3.4,4.308,2.233,0,3.349-1.867,3.349-4.308" fill="#fff"/>
    <path id="Path_109" data-name="Path 109" d="M271.559,61.02h3.035l3.418,5.633c.768,1.308,1.779,3.419,1.779,3.419h.035s-.157-2.32-.157-3.8V61.02h2.843V74H279.46l-3.384-5.563c-.785-1.309-1.8-3.471-1.8-3.471h-.035s.157,2.337.157,3.819V74h-2.843Z" fill="#fff"/>
    <path id="Path_110" data-name="Path 110" d="M293.233,67.56c0-3.872,2.494-6.767,6.366-6.767a5.929,5.929,0,0,1,3.558,1.012,5,5,0,0,1,2.006,3.592H302.2a2.477,2.477,0,0,0-2.615-2.128c-2.216,0-3.314,1.832-3.314,4.291,0,2.477,1.29,4.273,3.331,4.273a2.56,2.56,0,0,0,2.7-2.372h2.983a5.258,5.258,0,0,1-1.57,3.366,5.563,5.563,0,0,1-4.116,1.465c-3.785,0-6.366-2.86-6.366-6.732" fill="#fff"/>
    <path id="Path_111" data-name="Path 111" d="M308.735,67.56c0-3.89,2.476-6.767,6.418-6.767,3.924,0,6.4,2.877,6.4,6.767,0,3.872-2.477,6.75-6.4,6.75-3.942,0-6.418-2.878-6.418-6.75m9.784,0c0-2.459-1.116-4.36-3.349-4.36-2.249,0-3.4,1.9-3.4,4.36,0,2.441,1.152,4.308,3.4,4.308,2.233,0,3.349-1.867,3.349-4.308" fill="#fff"/>
    <rect id="Rectangle_128" data-name="Rectangle 128" width="2.895" height="2.86" transform="translate(324.794 71.136)" fill="#fff"/>
    <path id="Path_112" data-name="Path 112" d="M66.055.058c.33-.022.654-.058.994-.058-.293,0-.574.031-.862.043l.049-.006c.273-.009.536-.037.813-.037-.318,0-.631.014-.94.036C53.371.419,44.87,8.462,44.87,20.326a18.37,18.37,0,0,0,7.187,15.135,24.244,24.244,0,0,0,13.393,4.72c.533.037,1.066.061,1.6.061a8.889,8.889,0,0,1-.89-.07c-6.2-.869-12.5-10.6-12.5-20.866,0-9.227,5.05-18.476,12.4-19.248" fill="#fff"/>
    <path id="Path_113" data-name="Path 113" d="M31.219,19.306c0-9.334,5.166-18.7,12.657-19.277-12.851.3-21.441,8.37-21.441,20.3a18.37,18.37,0,0,0,7.187,15.135,24.636,24.636,0,0,0,14.991,4.781c-6.469,0-13.394-10.173-13.394-20.936" fill="#fff"/>
    <path id="Path_114" data-name="Path 114" d="M8.808,19.306C8.808,9.972,13.974.61,21.465.029H21.44C8.59.331,0,8.4,0,20.326A18.37,18.37,0,0,0,7.187,35.461a24.636,24.636,0,0,0,14.991,4.781c-.029,0-.057,0-.086,0,.037,0,.073,0,.11,0-6.469,0-13.394-10.173-13.394-20.936" fill="#fff"/>
    <path id="Path_115" data-name="Path 115" d="M146.03,23.1c0,7.9-6.163,8.808-10.8,8.808s-10.8-.913-10.8-8.808V.834H115.46V23.1c0,10.886,7.206,17.13,19.77,17.13S155,33.991,155,23.1V.834h-8.97Z" fill="#fff"/>
    <path id="Path_116" data-name="Path 116" d="M176.916,9.341h16.257V39.4h8.971V9.341H218.4V.833H176.916Z" fill="#fff"/>
    <path id="Path_117" data-name="Path 117" d="M249.149.834h-8.97V39.4h35.556V30.894H249.149Z" fill="#fff"/>
    <rect id="Rectangle_129" data-name="Rectangle 129" width="8.97" height="38.568" transform="translate(298.492 0.833)" fill="#fff"/>
    <path id="Path_118" data-name="Path 118" d="M342.62,23.7H364.3V15.192H342.62V9.341h25.938V.833H333.65V39.4h35.463V30.893H342.62Z" fill="#fff"/>
    <path id="Path_119" data-name="Path 119" d="M419.858,23.686c4.545-1.365,8.721-4.789,8.721-11,0-4.426-2.039-11.85-15.7-11.85h-21.9V39.4h8.97V24.487h9.553L420.345,39.4H431.5Zm-7.9-7.706H399.954V9.341h12.005c7.835,0,7.835,1.828,7.835,3.3,0,1.567,0,3.343-7.835,3.343" fill="#fff"/>
    <path id="Path_120" data-name="Path 120" d="M74.855.029c7.49.581,12.657,9.943,12.657,19.277,0,10.763-6.926,20.936-13.394,20.936a24.633,24.633,0,0,0,14.99-4.781A18.37,18.37,0,0,0,96.3,20.326c0-11.927-8.59-20-21.441-20.3" fill="#fff"/>
  </g>
</svg>
