<?xml version="1.0" encoding="UTF-8"?> <!-- Generator: Adobe Illustrator 24.2.0, SVG Export Plug-In . SVG Version: 6.00 Build 0) --> <svg xmlns="http://www.w3.org/2000/svg" xmlns:xlink="http://www.w3.org/1999/xlink" version="1.1" id="Layer_1" x="0px" y="0px" viewBox="0 0 149.36 38.59" style="enable-background:new 0 0 149.36 38.59;" xml:space="preserve"> <style type="text/css"> .st0{fill:#43B049;} </style> <g> <g> <path class="st0" d="M52.53,5.28h2.71v7.04l6.89-7.04h3.34l-6.18,6.18l6.61,9.3h-3.38l-5.07-7.39l-2.21,2.19v5.2h-2.71V5.28z"></path> <path class="st0" d="M67.07,5.28h11.14v2.34h-8.43v4.05h7.8v2.21h-7.8v4.53h8.58v2.34H67.07V5.28z"></path> <path class="st0" d="M80.18,5.28h2.71v13.13h7.87v2.34H80.18V5.28z"></path> <path class="st0" d="M92.57,5.28h2.71v13.13h7.87v2.34H92.57V5.28z"></path> <path class="st0" d="M104.97,5.28h11.14v2.34h-8.43v4.05h7.8v2.21h-7.8v4.53h8.58v2.34h-11.29V5.28z"></path> <path class="st0" d="M123.45,14.68l-5.81-9.41h3.14l4.1,6.93l4.03-6.93h3.03l-5.79,9.41v6.07h-2.71V14.68z"></path> <path class="st0" d="M62.98,27.67c-0.12-0.45-0.27-0.86-0.48-1.24c-0.2-0.38-0.46-0.7-0.78-0.98c-0.32-0.27-0.69-0.49-1.12-0.64 c-0.43-0.15-0.92-0.23-1.48-0.23c-0.82,0-1.54,0.17-2.13,0.5c-0.6,0.33-1.09,0.78-1.46,1.33c-0.38,0.56-0.65,1.19-0.83,1.9 c-0.18,0.71-0.27,1.43-0.27,2.17c0,0.74,0.09,1.46,0.27,2.17c0.18,0.71,0.46,1.34,0.83,1.9c0.38,0.56,0.86,1,1.46,1.33 c0.6,0.33,1.31,0.5,2.13,0.5c0.61,0,1.14-0.1,1.6-0.31c0.46-0.21,0.86-0.5,1.19-0.87c0.33-0.37,0.59-0.8,0.78-1.29 c0.19-0.49,0.31-1.02,0.37-1.58h2.64c-0.06,0.92-0.26,1.77-0.6,2.54c-0.34,0.77-0.8,1.43-1.38,1.98 c-0.58,0.56-1.26,0.99-2.04,1.29c-0.78,0.3-1.64,0.46-2.58,0.46c-1.16,0-2.19-0.21-3.11-0.64c-0.92-0.43-1.69-1.01-2.33-1.74 c-0.64-0.74-1.12-1.6-1.46-2.58c-0.34-0.98-0.51-2.03-0.51-3.14c0-1.1,0.17-2.14,0.51-3.12c0.34-0.98,0.83-1.84,1.46-2.58 c0.64-0.74,1.41-1.32,2.33-1.76c0.92-0.43,1.95-0.65,3.11-0.65c0.87,0,1.68,0.12,2.45,0.36c0.77,0.24,1.44,0.59,2.03,1.04 c0.59,0.45,1.06,1.01,1.42,1.66c0.36,0.65,0.59,1.39,0.67,2.23H62.98z"></path> <path class="st0" d="M74.14,22.38c1.16,0,2.19,0.22,3.11,0.65c0.92,0.43,1.69,1.02,2.33,1.76c0.64,0.74,1.12,1.6,1.46,2.58 c0.34,0.98,0.51,2.02,0.51,3.12c0,1.11-0.17,2.16-0.51,3.14c-0.34,0.98-0.83,1.84-1.46,2.58c-0.64,0.74-1.41,1.32-2.33,1.74 c-0.92,0.43-1.95,0.64-3.11,0.64s-2.19-0.21-3.11-0.64c-0.92-0.43-1.69-1.01-2.33-1.74c-0.64-0.74-1.12-1.6-1.46-2.58 c-0.34-0.98-0.51-2.03-0.51-3.14c0-1.1,0.17-2.14,0.51-3.12c0.34-0.98,0.83-1.84,1.46-2.58c0.64-0.74,1.41-1.32,2.33-1.76 C71.95,22.6,72.99,22.38,74.14,22.38z M74.14,24.59c-0.82,0-1.54,0.17-2.13,0.5c-0.6,0.33-1.09,0.78-1.46,1.33 c-0.38,0.56-0.65,1.19-0.83,1.9c-0.18,0.71-0.27,1.43-0.27,2.17c0,0.74,0.09,1.46,0.27,2.17c0.18,0.71,0.46,1.34,0.83,1.9 c0.38,0.56,0.86,1,1.46,1.33c0.6,0.33,1.31,0.5,2.13,0.5s1.53-0.17,2.13-0.5c0.6-0.33,1.09-0.78,1.46-1.33 c0.38-0.56,0.65-1.19,0.83-1.9c0.18-0.71,0.27-1.43,0.27-2.17c0-0.74-0.09-1.46-0.27-2.17c-0.18-0.71-0.46-1.34-0.83-1.9 s-0.86-1-1.46-1.33C75.68,24.75,74.97,24.59,74.14,24.59z"></path> <path class="st0" d="M82.83,22.75h2.86l7.06,11.4h0.04v-11.4h2.58v15.47h-2.86l-7.04-11.38h-0.07v11.38h-2.58V22.75z"></path> <path class="st0" d="M97.01,22.75h2.86l7.06,11.4h0.04v-11.4h2.58v15.47h-2.86l-7.04-11.38h-0.07v11.38h-2.58V22.75z"></path> <path class="st0" d="M111.18,22.75h11.14v2.34h-8.43v4.05h7.8v2.21h-7.8v4.53h8.58v2.34h-11.29V22.75z"></path> <path class="st0" d="M134.19,27.67c-0.12-0.45-0.27-0.86-0.48-1.24c-0.2-0.38-0.46-0.7-0.78-0.98c-0.32-0.27-0.69-0.49-1.12-0.64 c-0.43-0.15-0.92-0.23-1.48-0.23c-0.82,0-1.54,0.17-2.13,0.5c-0.6,0.33-1.09,0.78-1.46,1.33c-0.38,0.56-0.65,1.19-0.83,1.9 c-0.18,0.71-0.27,1.43-0.27,2.17c0,0.74,0.09,1.46,0.27,2.17c0.18,0.71,0.46,1.34,0.83,1.9c0.38,0.56,0.86,1,1.46,1.33 c0.6,0.33,1.31,0.5,2.13,0.5c0.61,0,1.14-0.1,1.6-0.31s0.86-0.5,1.19-0.87c0.33-0.37,0.59-0.8,0.78-1.29 c0.19-0.49,0.31-1.02,0.37-1.58h2.64c-0.06,0.92-0.26,1.77-0.6,2.54c-0.34,0.77-0.8,1.43-1.38,1.98s-1.26,0.99-2.04,1.29 c-0.78,0.3-1.64,0.46-2.58,0.46c-1.16,0-2.19-0.21-3.11-0.64c-0.92-0.43-1.69-1.01-2.33-1.74c-0.64-0.74-1.12-1.6-1.46-2.58 c-0.34-0.98-0.51-2.03-0.51-3.14c0-1.1,0.17-2.14,0.51-3.12c0.34-0.98,0.83-1.84,1.46-2.58c0.64-0.74,1.41-1.32,2.33-1.76 c0.92-0.43,1.95-0.65,3.11-0.65c0.87,0,1.68,0.12,2.45,0.36c0.77,0.24,1.44,0.59,2.03,1.04c0.59,0.45,1.06,1.01,1.42,1.66 c0.36,0.65,0.59,1.39,0.67,2.23H134.19z"></path> <path class="st0" d="M136.84,22.75h12.53v2.34h-4.92v13.13h-2.71V25.09h-4.9V22.75z"></path> </g> <g> <path class="st0" d="M38.22,1.34c-9.8,0-17.77,7.97-17.77,17.77s7.97,17.77,17.77,17.77h0L38.22,1.34L38.22,1.34z"></path> <path class="st0" d="M17.77,19.11c0-8.71,5.48-16.17,13.18-19.11H0v38.22h30.94C23.25,35.28,17.77,27.83,17.77,19.11z"></path> </g> </g> </svg> 