<svg id="Logo-dark" xmlns="http://www.w3.org/2000/svg" width="26.975" height="21.108" viewBox="0 0 26.975 21.108">
  <g id="Group_97" data-name="Group 97">
    <path id="Path_112" data-name="Path 112" d="M55.982.03c.173-.012.343-.03.521-.03-.154,0-.3.016-.452.023l.026,0C56.22.015,56.358,0,56.5,0c-.167,0-.331.007-.493.019C49.329.22,44.87,4.439,44.87,10.662A9.636,9.636,0,0,0,48.64,18.6a12.717,12.717,0,0,0,7.025,2.476c.28.019.559.032.838.032a4.663,4.663,0,0,1-.467-.037c-3.251-.456-6.559-5.558-6.559-10.945,0-4.84,2.649-9.691,6.5-10.1" transform="translate(-44.87)" fill="#1a1818"/>
    <path id="Path_120" data-name="Path 120" d="M74.5.029c3.929.3,6.639,5.215,6.639,10.111,0,5.646-3.633,10.982-7.026,10.982a12.921,12.921,0,0,0,7.863-2.508,9.635,9.635,0,0,0,3.77-7.939C85.751,4.419,81.245.187,74.5.029" transform="translate(-58.776 -0.014)" fill="#1a1818"/>
  </g>
</svg>
